<svg stroke="black" xmlns="http://www.w3.org/2000/svg" width="105" height="105" viewBox="0 0 105 105">
    <g>
        <defs>
            <mask id="q4">
                <path fill="white" stroke-width="0"  d="M-45.685,-1.372A4,4,0,0,1,-49.658,-5.839A50,50,0,0,1,-5.839,-49.658A4,4,0,0,1,-1.372,-45.685L-1.372,-18.995A4,4,0,0,1,-4.284,-15.146A15.74,15.74,0,0,0,-15.146,-4.284A4,4,0,0,1,-18.995,-1.372Z" stroke-linejoin="round"></path>
            </mask>
            <mask id="q2">
                <path fill="white" stroke-width="0" d="M45.685,1.372A4,4,0,0,1,49.658,5.839A50,50,0,0,1,5.839,49.658A4,4,0,0,1,1.372,45.685L1.372,18.995A4,4,0,0,1,4.284,15.146A15.74,15.74,0,0,0,15.146,4.284A4,4,0,0,1,18.995,1.372Z" stroke-linejoin="round"></path>
            </mask>
            <mask id="q3">
                <path fill="white" stroke-width="0" d="M-1.372,45.685A4,4,0,0,1,-5.839,49.658A50,50,0,0,1,-49.658,5.839A4,4,0,0,1,-45.685,1.372L-18.995,1.372A4,4,0,0,1,-15.146,4.284A15.74,15.74,0,0,0,-4.284,15.146A4,4,0,0,1,-1.372,18.995Z" stroke-linejoin="round"></path>
            </mask>
        </defs>
        <g transform="translate(52.5, 52.5)">
            <g>
                <path d="M1.372,-45.685A4,4,0,0,1,5.839,-49.658A50,50,0,0,1,49.658,-5.839A4,4,0,0,1,45.685,-1.372L18.995,-1.372A4,4,0,0,1,15.146,-4.284A15.74,15.74,0,0,0,4.284,-15.146A4,4,0,0,1,1.372,-18.995Z" stroke-linejoin="round"></path>
                <path mask="url(#q2)" fill="transparent" stroke-width="10" d="M45.685,1.372A4,4,0,0,1,49.658,5.839A50,50,0,0,1,5.839,49.658A4,4,0,0,1,1.372,45.685L1.372,18.995A4,4,0,0,1,4.284,15.146A15.74,15.74,0,0,0,15.146,4.284A4,4,0,0,1,18.995,1.372Z"></path>
                <path mask="url(#q3)" stroke-linejoin="round" fill="transparent" stroke-width="10" d="M-1.372,45.685A4,4,0,0,1,-5.839,49.658A50,50,0,0,1,-49.658,5.839A4,4,0,0,1,-45.685,1.372L-18.995,1.372A4,4,0,0,1,-15.146,4.284A15.74,15.74,0,0,0,-4.284,15.146A4,4,0,0,1,-1.372,18.995Z"></path>
                <path mask="url(#q4)" fill="transparent" stroke-width="10" stroke-linejoin="round" d="M-45.685,-1.372A4,4,0,0,1,-49.658,-5.839A50,50,0,0,1,-5.839,-49.658A4,4,0,0,1,-1.372,-45.685L-1.372,-18.995A4,4,0,0,1,-4.284,-15.146A15.74,15.74,0,0,0,-15.146,-4.284A4,4,0,0,1,-18.995,-1.372Z"></path>
            </g>
        </g>
    </g>
</svg>
